<?xml version="1.0" standalone="no"?>
<!DOCTYPE svg PUBLIC "-//W3C//DTD SVG 20010904//EN"
 "http://www.w3.org/TR/2001/REC-SVG-20010904/DTD/svg10.dtd">
<svg version="1.0" xmlns="http://www.w3.org/2000/svg"
 width="600.000000pt" height="409.000000pt" viewBox="0 0 600.000000 409.000000"
 preserveAspectRatio="xMidYMid meet">
<g transform="translate(0.000000,409.000000) scale(0.100000,-0.100000)"
fill="#000000" stroke="none">
<path d="M4610 3975 c-13 -16 -20 -136 -7 -128 4 2 7 -3 7 -12 0 -24 29 -65
77 -110 50 -47 85 -108 76 -131 -4 -12 -3 -15 5 -10 17 10 15 -9 -2 -23 -21
-17 -56 -22 -93 -12 -41 12 -120 -11 -150 -42 -82 -85 -97 -111 -101 -172 -2
-28 6 -58 27 -100 17 -33 31 -53 31 -45 0 13 2 13 9 1 5 -8 7 -21 4 -30 -4
-14 -3 -14 6 -1 10 14 16 7 11 -15 -1 -5 1 -7 5 -4 3 4 20 -6 38 -22 17 -16
36 -29 42 -29 6 0 26 -13 45 -30 18 -16 43 -33 54 -36 12 -4 26 -14 33 -23 7
-9 13 -12 13 -7 0 13 47 -58 56 -85 11 -35 6 -139 -7 -155 -6 -8 -8 -14 -5
-14 4 0 2 -9 -4 -19 -5 -11 -12 -40 -15 -66 -5 -36 -2 -52 11 -66 17 -19 60
-27 49 -9 -3 6 -1 10 5 10 7 0 9 -8 6 -20 -3 -11 -9 -29 -12 -40 -8 -28 25
-79 50 -77 30 1 44 14 51 49 5 23 11 29 26 25 12 -3 19 0 19 9 0 8 9 14 20 14
35 0 60 56 60 132 0 37 -4 69 -10 73 -5 3 -7 12 -4 19 3 7 -3 23 -14 36 -15
18 -22 21 -38 12 -17 -9 -19 -6 -20 19 -1 16 1 27 4 24 10 -9 41 69 42 103 0
18 -5 43 -12 55 -16 32 -79 108 -111 135 -15 13 -24 29 -20 34 4 7 1 8 -7 3
-7 -4 -15 -3 -19 2 -3 5 -23 22 -43 37 -21 16 -35 32 -32 37 3 5 -1 9 -8 9 -9
0 -9 3 2 10 8 5 11 10 6 10 -5 0 -3 7 4 15 7 8 16 12 21 9 5 -3 9 0 9 5 0 6 7
11 15 11 8 0 15 5 15 10 0 6 7 10 16 10 26 0 96 43 131 80 27 29 33 43 33 83
0 44 -33 165 -48 177 -4 3 -20 24 -35 47 -16 23 -35 44 -43 47 -9 3 -12 11 -8
17 4 8 3 9 -4 5 -7 -4 -12 -2 -12 4 0 6 -6 10 -14 8 -8 -2 -30 11 -49 29 -19
17 -38 29 -42 25 -4 -4 -4 4 -1 18 6 19 5 21 -3 10 -9 -13 -15 -8 -13 12 1 3
-15 14 -36 23 -20 10 -41 24 -45 31 -11 18 -32 18 -47 -1z m40 -26 c0 -12 7
-19 18 -19 10 0 48 -29 85 -65 37 -36 74 -65 81 -65 25 0 65 -41 100 -104 40
-72 60 -146 51 -194 -5 -29 -49 -82 -68 -82 -22 0 -142 -68 -163 -93 -34 -41
-31 -67 13 -97 55 -37 202 -186 213 -216 16 -42 12 -89 -10 -109 -11 -10 -20
-27 -20 -38 0 -28 -95 -220 -124 -252 -14 -15 -30 -24 -36 -20 -13 8 -4 75 17
130 38 98 21 215 -40 272 -31 30 -116 88 -186 128 -19 11 -56 48 -83 83 -45
60 -48 66 -48 125 0 60 2 64 48 114 59 66 103 83 195 76 73 -6 91 1 101 43 10
38 -27 109 -90 174 -59 61 -88 117 -78 154 3 13 1 27 -5 30 -7 5 -7 14 1 31
12 27 28 24 28 -6z m365 -1176 c14 -84 16 -142 5 -163 -6 -12 -36 -33 -66 -47
-47 -21 -54 -28 -54 -53 0 -16 -5 -32 -10 -35 -18 -11 -40 16 -40 50 0 36 16
54 81 88 l44 24 -3 64 c-1 35 0 74 3 87 9 35 32 26 40 -15z m-68 -2 c0 -11 -5
-18 -9 -15 -4 3 -5 11 -1 19 7 21 12 19 10 -4z m3 -42 c0 -5 -4 -7 -10 -4 -13
8 -12 5 1 -33 9 -26 8 -35 -4 -47 -9 -8 -22 -15 -30 -15 -9 0 -17 -5 -19 -12
-2 -6 -9 -8 -15 -5 -8 5 -3 21 13 50 13 23 27 50 30 60 7 18 34 24 34 6z"/>
<path d="M4864 3746 c4 -10 1 -25 -5 -32 -7 -9 -8 -14 -1 -14 16 0 23 30 11
48 -9 15 -10 15 -5 -2z"/>
<path d="M4942 3610 c0 -14 2 -19 5 -12 2 6 2 18 0 25 -3 6 -5 1 -5 -13z"/>
<path d="M4846 3608 c3 -5 10 -6 15 -3 13 9 11 12 -6 12 -8 0 -12 -4 -9 -9z"/>
<path d="M4555 3471 c-3 -5 -2 -12 3 -15 5 -3 9 1 9 9 0 17 -3 19 -12 6z"/>
<path d="M4635 3470 c-3 -6 1 -7 9 -4 18 7 21 14 7 14 -6 0 -13 -4 -16 -10z"/>
<path d="M4506 3383 c-6 -14 -5 -15 5 -6 7 7 10 15 7 18 -3 3 -9 -2 -12 -12z"/>
<path d="M4631 3344 c0 -11 3 -14 6 -6 3 7 2 16 -1 19 -3 4 -6 -2 -5 -13z"/>
<path d="M4570 3290 c0 -31 5 -42 19 -48 11 -4 60 -45 110 -92 178 -166 207
-186 173 -117 -22 45 -27 50 -117 122 -103 83 -135 114 -147 148 -15 42 -38
35 -38 -13z m230 -195 c11 -13 10 -14 -4 -9 -9 3 -16 10 -16 15 0 13 6 11 20
-6z"/>
<path d="M4675 3289 c-4 -6 -5 -12 -2 -15 2 -3 7 2 10 11 7 17 1 20 -8 4z"/>
<path d="M4905 3029 c-4 -6 -5 -12 -2 -15 2 -3 7 2 10 11 7 17 1 20 -8 4z"/>
<path d="M4794 3019 c-3 -6 -2 -15 3 -20 5 -5 9 -1 9 11 0 23 -2 24 -12 9z"/>
<path d="M4890 2831 c0 -6 4 -13 10 -16 6 -3 7 1 4 9 -7 18 -14 21 -14 7z"/>
<path d="M4821 2684 c0 -11 3 -14 6 -6 3 7 2 16 -1 19 -3 4 -6 -2 -5 -13z"/>
<path d="M2879 3802 c-32 -16 -34 -21 -42 -82 -4 -36 -14 -82 -22 -102 -39
-99 -48 -117 -56 -112 -5 3 -9 -2 -9 -10 0 -9 -5 -16 -12 -16 -6 0 -21 -9 -32
-19 -21 -19 -74 -33 -129 -33 -17 -1 -24 -4 -17 -8 13 -8 -55 -24 -97 -24 -13
0 -23 -3 -23 -7 0 -4 -13 -9 -29 -11 -18 -3 -27 0 -24 5 3 5 0 8 -8 5 -15 -5
-45 19 -35 29 3 3 -4 14 -16 24 -11 11 -17 19 -13 19 5 0 0 6 -10 14 -11 8
-16 19 -12 30 4 10 3 15 -3 11 -6 -3 -10 1 -10 9 0 8 -8 20 -19 25 -10 6 -22
22 -25 36 -4 14 -11 24 -17 22 -6 -1 -19 12 -28 29 -37 67 -74 81 -121 44 -14
-11 -31 -20 -37 -20 -7 0 -13 -4 -13 -10 0 -5 -6 -10 -13 -10 -7 0 -44 -29
-81 -65 -59 -57 -67 -69 -69 -104 -1 -23 -5 -37 -11 -34 -5 4 3 -10 18 -30 16
-20 35 -37 43 -37 7 0 24 -10 36 -22 13 -13 28 -23 35 -24 25 -2 29 -5 40 -29
7 -14 23 -30 37 -37 14 -6 25 -16 25 -22 0 -7 13 -27 28 -46 27 -32 34 -80 11
-80 -5 0 -9 -5 -9 -11 0 -6 -11 -24 -25 -41 -14 -16 -28 -42 -31 -56 -3 -15
-10 -35 -15 -46 -7 -13 -7 -16 0 -11 6 3 11 0 11 -7 0 -7 -18 -21 -40 -30 -32
-13 -47 -14 -77 -5 -47 13 -50 14 -93 16 -19 1 -30 5 -23 9 6 4 -12 8 -39 9
-51 2 -79 -10 -88 -37 -2 -8 -5 -55 -5 -105 0 -73 3 -93 18 -107 9 -10 23 -18
30 -18 9 0 9 -2 -1 -9 -8 -4 18 -7 60 -6 91 2 91 2 82 17 -4 7 -3 8 4 4 7 -4
28 -4 48 0 25 5 32 9 22 15 -14 9 1 12 52 11 76 -2 116 -15 105 -33 -4 -5 -1
-9 5 -9 6 0 8 -4 5 -10 -3 -5 -2 -10 3 -10 18 0 31 -50 26 -102 -4 -51 -70
-208 -94 -223 -15 -9 -12 -28 3 -19 7 4 9 3 4 -2 -11 -12 -30 -12 -38 -1 -3 5
-9 1 -12 -8 -4 -9 -3 -14 2 -11 5 3 12 -1 15 -10 4 -9 2 -13 -5 -8 -7 4 -10 1
-7 -7 3 -8 -8 -27 -24 -44 -15 -16 -28 -35 -28 -41 0 -16 -28 -26 -35 -13 -4
5 -10 7 -15 4 -5 -3 -12 0 -15 5 -7 11 -46 29 -76 35 -23 5 -59 28 -59 38 0 4
-5 5 -10 2 -5 -3 -10 -1 -10 5 0 6 -4 9 -9 6 -9 -6 -45 41 -46 59 0 6 -6 11
-12 11 -26 3 -28 5 -13 14 10 6 11 10 3 10 -7 0 -13 6 -13 13 0 20 -38 47 -57
41 -11 -3 -14 -2 -8 3 6 4 11 17 12 28 1 11 7 42 12 68 12 56 2 87 -29 87 -12
0 -21 10 -25 30 -4 17 -13 30 -21 30 -9 0 -13 4 -9 9 3 6 -4 8 -17 6 -12 -3
-25 0 -29 7 -4 7 -11 3 -18 -11 -15 -27 -46 -27 -64 -1 -21 30 -117 33 -117 4
0 -8 -5 -12 -10 -9 -6 4 -10 3 -9 -2 4 -22 -2 -43 -17 -57 -8 -9 -12 -16 -8
-16 3 0 1 -7 -6 -15 -7 -9 -8 -15 -2 -15 5 0 8 -9 5 -20 -3 -11 -9 -20 -13
-20 -16 0 -33 -65 -31 -117 1 -30 -2 -52 -6 -50 -5 3 -10 -10 -11 -29 -2 -23
4 -41 17 -56 11 -11 18 -25 15 -29 -8 -13 26 -58 44 -58 9 0 36 -4 60 -10 78
-20 263 5 236 32 -3 3 -3 11 1 17 5 8 17 5 40 -8 18 -11 47 -23 64 -27 18 -4
35 -13 38 -20 2 -8 11 -11 19 -8 8 3 14 1 14 -5 0 -8 40 -29 70 -38 35 -11 50
-18 50 -25 0 -4 18 -13 40 -19 22 -6 40 -15 40 -21 0 -6 5 -7 10 -4 6 3 10 1
10 -5 0 -8 7 -9 18 -5 9 4 23 8 30 8 6 0 12 4 12 8 0 5 7 6 15 2 10 -3 15 -1
13 7 -2 7 13 23 32 36 19 12 43 30 53 38 9 9 17 14 17 11 0 -6 16 6 51 38 10
9 19 14 19 11 0 -3 7 2 16 10 8 9 20 14 25 11 5 -4 9 1 9 10 0 9 5 13 10 10 6
-4 10 -3 9 2 -3 20 2 27 12 13 8 -12 9 -10 4 9 -5 18 -4 22 6 16 9 -6 11 -4 6
8 -3 9 -1 17 5 19 16 6 80 -28 96 -50 7 -9 16 -17 20 -17 4 0 6 -3 5 -7 -2 -5
4 -8 12 -8 8 0 14 -6 13 -12 -2 -7 4 -11 12 -10 8 2 12 0 7 -4 -4 -4 0 -18 8
-30 8 -13 12 -31 8 -40 -4 -11 -2 -15 4 -11 14 9 24 -17 17 -40 -5 -14 -4 -15
4 -4 21 30 38 -139 19 -193 -7 -21 -7 -34 2 -48 6 -10 10 -22 7 -26 -6 -10 15
-12 132 -14 79 -1 97 1 120 19 36 26 55 67 44 90 -13 26 -33 85 -37 108 -2 11
-7 29 -11 39 -5 13 -4 17 4 12 6 -3 14 -1 18 5 4 8 3 9 -4 5 -7 -4 -12 -2 -12
5 0 6 8 9 20 6 11 -3 18 -2 15 3 -4 6 13 11 95 26 66 12 159 41 153 48 -4 4 6
5 22 2 17 -3 24 -3 17 0 -9 4 0 13 26 24 22 10 65 43 96 74 62 61 66 63 114
53 17 -4 46 -10 62 -13 17 -3 30 -12 30 -19 0 -16 30 -35 55 -35 24 0 143 100
157 132 7 15 16 28 20 28 10 0 1 39 -13 56 -6 8 -15 11 -20 8 -5 -3 -9 -1 -9
5 0 15 18 23 25 11 4 -6 12 -7 18 -4 7 4 8 3 4 -1 -9 -11 58 -45 89 -45 21 0
89 29 69 30 -5 0 0 9 12 19 12 10 20 21 18 23 -3 3 4 13 15 23 11 10 20 22 20
27 0 5 7 16 15 25 8 8 12 20 8 26 -4 8 -2 8 9 -1 13 -10 15 -9 12 14 -2 19 1
24 12 20 9 -3 12 -2 9 5 -4 6 0 18 8 27 9 9 17 22 18 27 2 6 10 9 18 7 7 -2
18 2 22 10 8 12 12 14 43 17 26 2 58 37 65 71 l7 35 45 -47 c55 -58 78 -85
140 -173 28 -38 54 -72 57 -75 4 -3 18 -28 32 -57 14 -28 27 -50 30 -48 3 2 6
-8 5 -23 -1 -34 14 -64 48 -98 15 -15 27 -30 27 -35 0 -12 48 -35 89 -44 31
-7 33 -6 20 7 -14 14 -66 33 -82 30 -4 -1 -10 6 -14 15 -4 10 -11 21 -16 24
-4 3 5 21 22 40 33 36 37 44 21 54 -6 3 -7 17 -4 30 3 12 1 26 -5 30 -8 4 -11
-9 -9 -39 1 -32 -4 -52 -17 -66 -29 -32 -50 -26 -52 16 -2 37 -39 124 -53 124
-4 0 -11 12 -14 26 -4 14 -31 57 -61 94 -30 37 -55 71 -55 77 0 5 -38 48 -85
96 -47 48 -85 90 -85 95 0 4 10 19 23 34 l22 26 95 -73 c52 -41 133 -101 180
-134 47 -33 112 -83 144 -110 33 -28 63 -48 69 -44 12 7 27 -16 20 -34 -3 -7
-10 -13 -17 -13 -6 0 -24 -19 -41 -42 -49 -67 -50 -71 -26 -63 17 5 21 2 21
-14 0 -12 -7 -21 -15 -21 -8 0 -15 -5 -15 -11 0 -6 7 -8 16 -5 9 3 18 6 20 6
2 0 4 7 4 15 0 9 6 12 15 9 8 -3 21 1 30 9 14 14 12 16 -15 15 -36 -1 -43 4
-34 26 8 20 30 21 38 1 3 -8 13 -15 22 -15 15 0 15 3 -4 23 -27 29 -28 53 -2
60 25 7 90 -10 111 -29 26 -23 34 -16 10 10 -13 13 -34 27 -48 31 -13 3 -34
16 -46 28 -28 29 -102 83 -103 77 -1 -3 -18 12 -37 32 -19 20 -37 34 -41 31
-3 -4 -6 -1 -6 5 0 5 5 12 12 14 8 3 6 7 -5 11 -10 4 -16 2 -14 -5 1 -6 -4
-13 -12 -16 -9 -3 -11 0 -6 7 4 8 -1 14 -14 18 -11 3 -18 10 -14 15 3 6 0 9
-8 6 -7 -2 -18 -1 -24 4 -5 4 -21 17 -35 28 -21 17 -22 19 -5 14 15 -4 17 -4
6 4 -8 6 -21 8 -29 4 -9 -3 -13 -1 -9 5 3 5 -12 20 -34 32 -22 13 -36 27 -33
33 4 7 2 8 -4 4 -13 -8 -53 24 -46 36 3 4 0 16 -6 25 -11 17 -11 17 -6 0 5
-15 1 -18 -21 -15 -34 4 -41 25 -11 37 l23 10 -25 2 c-14 1 -31 2 -37 2 -7 -1
-13 3 -13 8 0 5 -14 9 -31 9 -17 0 -37 7 -46 15 -16 17 -48 12 -71 -10 -11
-10 -11 -18 -3 -33 17 -32 14 -92 -4 -92 -8 0 -15 -7 -15 -15 0 -8 -4 -15 -10
-15 -5 0 -10 -11 -10 -24 0 -13 -7 -29 -15 -36 -18 -15 -20 -34 -2 -25 6 4 5
0 -3 -7 -8 -8 -21 -20 -29 -28 -10 -11 -12 -12 -6 -1 5 9 3 12 -6 9 -8 -3 -13
-12 -11 -20 1 -9 -5 -18 -13 -22 -9 -3 -13 -2 -10 4 3 6 1 10 -4 10 -6 0 -11
-7 -11 -16 0 -8 -4 -12 -10 -9 -5 3 -10 0 -10 -8 0 -7 -13 -27 -30 -43 -16
-16 -30 -36 -30 -43 0 -12 -3 -12 -12 -3 -7 7 -22 12 -34 12 -13 0 -29 7 -37
15 -8 8 -18 11 -23 7 -5 -4 -2 2 6 13 8 11 10 17 6 13 -5 -4 -16 -2 -24 5 -13
10 -14 9 -8 -3 4 -8 -1 -5 -11 8 -10 13 -30 29 -43 36 -14 7 -24 18 -23 24 2
7 -4 9 -14 5 -11 -4 -14 -3 -9 5 4 8 2 10 -7 6 -8 -3 -21 2 -30 10 -9 9 -21
16 -27 16 -6 0 -18 6 -25 14 -12 12 -9 16 21 31 19 9 32 20 29 25 -3 5 5 12
19 16 14 3 24 11 23 16 -1 6 7 12 18 14 46 6 97 23 121 39 15 10 23 11 19 4
-5 -8 -4 -10 3 -5 7 4 12 13 12 20 0 7 16 17 37 22 37 9 66 40 78 83 5 17 4
22 -5 16 -8 -5 -11 -4 -6 3 12 20 -37 146 -71 181 -18 19 -33 37 -33 41 0 4
-13 10 -28 12 -23 3 -35 -3 -57 -29 -15 -19 -30 -32 -32 -29 -3 3 -22 -5 -42
-18 -20 -12 -51 -28 -68 -34 -30 -10 -36 -8 -65 19 -18 16 -37 29 -43 29 -5 0
-3 -5 5 -10 8 -5 11 -10 6 -10 -5 0 -22 14 -38 32 -15 17 -28 28 -28 24 0 -4
-13 1 -29 10 -17 10 -27 23 -24 31 3 8 -2 13 -13 13 -27 0 -85 43 -79 59 3 8
0 11 -8 8 -8 -3 -20 3 -28 14 -7 10 -20 19 -29 19 -13 0 -13 1 0 10 13 9 13
10 0 10 -11 0 -15 11 -14 38 2 96 4 104 25 109 12 3 18 11 15 19 -3 8 -1 14 4
14 16 0 21 37 8 66 -12 30 -48 71 -48 57 0 -4 -4 -3 -8 2 -11 15 -62 40 -112
54 -25 7 -52 17 -61 21 -11 6 -29 2 -50 -8z m101 -37 c97 -31 183 -94 164
-120 -66 -88 -85 -141 -70 -199 9 -35 108 -130 181 -173 33 -20 71 -46 85 -58
40 -36 108 -75 130 -75 35 0 150 61 172 91 31 41 65 39 84 -6 8 -19 18 -35 22
-35 18 0 54 -94 56 -142 1 -47 -1 -52 -29 -67 -16 -9 -38 -17 -47 -19 -10 -2
-29 -13 -42 -25 -14 -13 -54 -29 -96 -39 -71 -17 -110 -43 -110 -76 0 -9 -7
-13 -20 -9 -26 7 -52 -19 -48 -47 2 -15 23 -31 74 -56 64 -31 108 -61 154
-104 25 -24 111 -57 131 -51 11 4 32 25 48 48 16 23 56 62 90 87 33 25 60 51
61 59 1 36 36 111 52 111 9 0 18 -5 20 -12 7 -21 38 0 38 27 0 32 26 95 39 95
19 0 21 -18 6 -53 -8 -20 -13 -53 -10 -77 2 -24 1 -55 -2 -70 -5 -26 -11 -29
-69 -40 -42 -8 -64 -17 -64 -26 0 -8 -4 -14 -10 -14 -5 0 -10 -6 -10 -12 0
-16 -105 -175 -144 -219 -33 -37 -38 -36 -160 21 -47 22 -91 40 -97 40 -6 0
-42 20 -80 45 -73 47 -113 58 -107 29 2 -9 10 -20 18 -25 8 -4 43 -23 78 -43
35 -20 69 -36 76 -36 7 0 21 -9 32 -21 10 -12 31 -27 46 -35 17 -9 28 -23 28
-35 0 -24 -78 -110 -128 -141 l-35 -22 -22 28 c-26 32 -120 61 -168 50 -18 -4
-54 -30 -88 -64 -64 -64 -147 -103 -289 -135 -41 -9 -91 -22 -110 -29 -35 -12
-35 -12 -34 -71 0 -33 9 -88 19 -122 l19 -62 -25 -20 c-21 -18 -36 -21 -119
-20 -52 1 -103 6 -112 11 -23 11 -23 44 -2 56 14 8 16 22 12 83 -4 61 -13 90
-50 169 -51 106 -108 169 -172 190 -44 14 -86 0 -86 -31 0 -20 -40 -53 -166
-137 -50 -34 -97 -68 -104 -77 -7 -8 -18 -15 -24 -15 -6 0 -74 31 -151 69 -77
38 -166 81 -197 95 -54 24 -69 42 -51 60 13 13 9 66 -5 66 -21 0 -72 29 -72
41 0 7 9 8 27 3 16 -4 45 -7 65 -6 34 1 38 -1 46 -31 13 -47 98 -127 163 -156
86 -37 113 -50 131 -63 31 -22 78 36 173 217 52 99 64 129 81 215 7 34 -40
133 -78 165 -25 21 -36 24 -76 19 -26 -3 -56 -9 -67 -14 -103 -42 -202 -51
-228 -22 -19 21 -25 152 -8 195 11 27 45 37 67 19 10 -9 84 -27 151 -37 30 -5
57 -1 88 10 45 18 45 18 45 65 0 41 6 56 45 108 25 33 45 67 45 76 0 32 -51
117 -81 135 -17 11 -39 33 -50 50 -10 17 -26 31 -34 31 -9 0 -28 8 -43 18 -15
10 -36 23 -47 28 -14 8 -21 23 -23 54 -3 40 0 47 45 92 47 48 140 118 176 131
24 9 57 -9 57 -32 0 -10 16 -35 36 -56 19 -21 49 -62 65 -91 17 -29 36 -55 44
-58 8 -3 15 -14 15 -25 0 -10 13 -30 29 -44 l30 -25 113 30 c62 16 131 33 153
37 45 8 85 27 85 40 0 5 10 11 23 15 15 3 33 25 54 68 41 82 52 121 54 186 2
41 7 56 22 67 12 8 25 11 31 6 6 -5 36 -16 66 -26z m1096 -780 c8 -21 -23 -66
-40 -59 -8 3 -12 12 -10 19 3 7 1 16 -5 20 -6 3 -11 13 -11 21 0 19 59 19 66
-1z m104 -24 c0 -6 -4 -13 -10 -16 -5 -3 -10 1 -10 9 0 9 5 16 10 16 6 0 10
-4 10 -9z m-130 -61 c0 -5 -7 -10 -15 -10 -8 0 -15 5 -15 10 0 6 7 10 15 10 8
0 15 -4 15 -10z m-1995 -190 c3 -6 -1 -7 -9 -4 -18 7 -21 14 -7 14 6 0 13 -4
16 -10z m-668 -76 c13 -37 21 -39 73 -20 61 22 105 13 50 -10 -46 -20 -68 -22
-110 -13 -39 9 -102 -1 -106 -16 -2 -6 16 -20 40 -32 38 -19 51 -21 103 -13
33 4 74 15 92 24 37 19 75 7 67 -22 -2 -9 -12 -45 -22 -80 -16 -60 -18 -63
-43 -57 -28 6 -61 39 -61 61 0 20 38 42 63 37 20 -4 20 -3 4 7 -14 9 -25 9
-47 0 -16 -7 -34 -9 -39 -5 -6 3 -11 1 -11 -4 0 -6 6 -11 13 -12 6 0 2 -4 -11
-9 -12 -5 -29 -7 -38 -3 -14 5 -15 3 -5 -14 14 -27 41 -38 41 -17 0 9 5 12 11
8 6 -4 9 -20 6 -39 -5 -31 4 -59 20 -61 16 -2 61 -23 67 -32 3 -5 -2 -34 -10
-66 -8 -31 -13 -60 -10 -65 3 -4 -30 -8 -74 -9 -43 -1 -82 -2 -87 -4 -4 -1
-33 2 -63 6 -51 8 -85 30 -74 48 3 5 -1 17 -9 29 -17 24 -12 184 7 209 23 31
36 61 36 83 0 12 9 40 20 61 10 22 17 42 15 46 -2 4 17 4 43 0 25 -4 48 -11
49 -16z m163 -44 c0 -5 -2 -10 -4 -10 -2 0 -12 -3 -22 -7 -16 -6 -17 -5 -4 10
17 19 30 22 30 7z m-122 -31 c-16 -11 -65 -12 -71 -1 -3 4 15 7 39 8 27 0 40
-3 32 -7z m2189 -84 c0 -8 -4 -12 -9 -9 -5 3 -6 10 -3 15 9 13 12 11 12 -6z"/>
<path d="M3010 3726 c0 -2 7 -9 15 -16 9 -7 15 -8 15 -2 0 5 -7 12 -15 16 -8
3 -15 4 -15 2z"/>
<path d="M2900 3695 c0 -17 17 -25 102 -51 63 -18 103 -13 77 10 -11 10 -152
56 -173 56 -3 0 -6 -7 -6 -15z"/>
<path d="M2087 3614 c-4 -4 -7 -12 -7 -18 0 -6 5 -4 10 4 9 13 11 13 21 0 9
-12 10 -12 7 -1 -5 17 -21 25 -31 15z"/>
<path d="M2130 3610 c0 -5 5 -10 10 -10 6 0 10 5 10 10 0 6 -4 10 -10 10 -5 0
-10 -4 -10 -10z"/>
<path d="M2928 3613 c6 -2 18 -2 25 0 6 3 1 5 -13 5 -14 0 -19 -2 -12 -5z"/>
<path d="M2035 3570 c-3 -5 -1 -10 4 -10 6 0 11 5 11 10 0 6 -2 10 -4 10 -3 0
-8 -4 -11 -10z"/>
<path d="M2064 3547 c-17 -19 -54 -47 -82 -63 -51 -29 -64 -47 -39 -57 26 -10
189 115 180 138 -8 23 -26 18 -59 -18z"/>
<path d="M1985 3541 c-3 -5 -2 -12 3 -15 5 -3 9 1 9 9 0 17 -3 19 -12 6z"/>
<path d="M2177 3539 c7 -7 15 -10 18 -7 3 3 -2 9 -12 12 -14 6 -15 5 -6 -5z"/>
<path d="M2084 3459 c-19 -22 -19 -22 4 -8 12 8 22 17 22 21 0 12 -6 9 -26
-13z"/>
<path d="M2226 3463 c-6 -14 -5 -15 5 -6 7 7 10 15 7 18 -3 3 -9 -2 -12 -12z"/>
<path d="M3111 3324 c0 -11 3 -14 6 -6 3 7 2 16 -1 19 -3 4 -6 -2 -5 -13z"/>
<path d="M3668 3216 c-10 -7 -18 -17 -18 -22 0 -4 5 -3 12 4 8 8 15 8 24 1 8
-7 14 -7 19 1 4 6 1 9 -7 8 -7 -2 -12 3 -10 10 3 15 1 15 -20 -2z"/>
<path d="M3656 3164 c-8 -20 33 -114 49 -114 22 0 23 11 1 65 -22 57 -40 74
-50 49z"/>
<path d="M3350 3160 c-9 -6 -10 -10 -3 -10 6 0 15 5 18 10 8 12 4 12 -15 0z"/>
<path d="M3720 3161 c0 -6 4 -13 10 -16 6 -3 7 1 4 9 -7 18 -14 21 -14 7z"/>
<path d="M2187 3136 c-4 -10 -1 -13 8 -9 8 3 12 9 9 14 -7 12 -11 11 -17 -5z"/>
<path d="M2211 3104 c0 -11 3 -14 6 -6 3 7 2 16 -1 19 -3 4 -6 -2 -5 -13z"/>
<path d="M2950 3106 c0 -9 32 -36 43 -36 6 0 1 9 -11 20 -20 19 -32 25 -32 16z"/>
<path d="M2550 3065 c0 -5 5 -17 10 -25 5 -8 10 -10 10 -5 0 6 -5 17 -10 25
-5 8 -10 11 -10 5z"/>
<path d="M2378 3053 c7 -3 16 -2 19 1 4 3 -2 6 -13 5 -11 0 -14 -3 -6 -6z"/>
<path d="M2727 3049 c7 -7 15 -10 18 -7 3 3 -2 9 -12 12 -14 6 -15 5 -6 -5z"/>
<path d="M2819 3044 c-49 -15 -129 -77 -117 -90 5 -4 18 -2 30 5 52 27 69 39
71 47 3 15 41 5 52 -14 17 -29 14 -58 -7 -71 -11 -7 -17 -8 -13 -2 3 6 2 11
-4 11 -6 0 -15 10 -22 21 -11 21 -10 21 12 5 13 -9 28 -16 34 -16 5 1 -2 8
-17 16 -16 8 -28 19 -28 24 0 5 -7 7 -15 4 -21 -9 -19 -24 10 -67 29 -42 42
-45 73 -17 26 24 29 66 6 91 -32 36 9 48 84 24 18 -6 22 -4 22 13 0 11 -7 23
-16 26 -26 10 -106 5 -155 -10z"/>
<path d="M3730 3045 c-7 -9 -11 -17 -9 -20 3 -2 10 5 17 15 14 24 10 26 -8 5z"/>
<path d="M3760 3041 c0 -6 4 -13 10 -16 6 -3 7 1 4 9 -7 18 -14 21 -14 7z"/>
<path d="M2196 3025 c-7 -17 -23 -55 -34 -77 -2 -5 1 -8 8 -8 14 0 42 67 37
88 -3 14 -5 14 -11 -3z"/>
<path d="M2591 3024 c0 -11 3 -14 6 -6 3 7 2 16 -1 19 -3 4 -6 -2 -5 -13z"/>
<path d="M2701 3024 c0 -11 3 -14 6 -6 3 7 2 16 -1 19 -3 4 -6 -2 -5 -13z"/>
<path d="M2330 3020 c0 -5 5 -10 11 -10 5 0 7 5 4 10 -3 6 -8 10 -11 10 -2 0
-4 -4 -4 -10z"/>
<path d="M3733 3014 c-15 -16 -16 -24 -4 -24 8 0 24 30 19 35 -2 2 -9 -3 -15
-11z"/>
<path d="M2383 3005 c-36 -15 -113 -74 -113 -86 0 -21 33 -13 68 17 22 19 42
34 45 34 2 0 2 -11 0 -24 -7 -36 23 -86 51 -86 33 0 46 20 48 75 l2 47 43 -7
c35 -5 43 -3 43 10 0 34 -124 48 -187 20z m68 -28 c-6 -6 -11 -18 -11 -26 0
-14 1 -14 10 -1 5 8 10 10 10 4 0 -14 -39 -59 -45 -52 -3 3 -9 23 -12 43 -5
33 -4 37 10 32 9 -3 16 -3 16 1 -3 17 2 21 17 15 11 -4 12 -9 5 -16z m-4 -89
c-3 -8 -6 -5 -6 6 -1 11 2 17 5 13 3 -3 4 -12 1 -19z"/>
<path d="M3684 3009 c-3 -6 -2 -15 3 -20 5 -5 9 -1 9 11 0 23 -2 24 -12 9z"/>
<path d="M2117 2996 c-10 -8 -14 -16 -10 -19 5 -3 14 3 21 14 14 22 13 23 -11
5z"/>
<path d="M2987 2953 c-4 -27 -9 -60 -13 -75 -5 -22 -3 -28 10 -28 9 0 16 -4
16 -10 0 -5 -7 -10 -15 -10 -8 0 -15 -5 -15 -11 0 -5 -4 -7 -10 -4 -5 3 -10 2
-10 -2 0 -22 -65 -45 -127 -46 -18 0 -30 -4 -27 -8 2 -4 1 -9 -3 -12 -5 -2 -2
-2 5 0 8 1 36 3 63 3 42 0 54 5 88 35 21 19 44 35 50 35 14 0 14 15 1 41 -8
14 -7 19 2 19 9 0 9 3 -2 10 -10 6 -11 10 -2 10 6 0 12 7 12 16 0 8 5 12 10 9
16 -10 12 5 -6 23 -15 15 -15 16 2 23 11 4 13 8 6 8 -7 1 -10 6 -7 11 3 6 0
10 -8 10 -10 0 -16 -16 -20 -47z"/>
<path d="M2236 2971 c-4 -6 -2 -11 4 -11 7 0 9 -9 5 -22 -5 -20 -4 -21 5 -5 7
11 8 23 2 33 -6 11 -11 13 -16 5z"/>
<path d="M2592 2968 c-5 -7 -12 -33 -15 -58 -11 -91 -18 -110 -40 -110 -11 0
-26 8 -33 17 -16 22 -25 14 -17 -15 7 -28 53 -30 77 -3 17 19 39 128 29 145
-3 4 1 12 8 17 7 4 11 11 8 14 -4 3 -11 0 -17 -7z"/>
<path d="M2830 2976 c0 -2 7 -6 15 -10 8 -3 15 -1 15 4 0 6 -7 10 -15 10 -8 0
-15 -2 -15 -4z"/>
<path d="M3656 2957 c3 -10 9 -15 12 -12 3 3 0 11 -7 18 -10 9 -11 8 -5 -6z"/>
<path d="M3593 2945 c0 -8 4 -12 9 -9 4 3 8 9 8 15 0 5 -4 9 -8 9 -5 0 -9 -7
-9 -15z"/>
<path d="M2930 2940 c0 -5 9 -10 20 -10 11 0 20 5 20 10 0 6 -9 10 -20 10 -11
0 -20 -4 -20 -10z"/>
<path d="M2690 2930 c0 -5 6 -10 13 -10 9 0 9 -2 1 -8 -9 -5 -8 -10 1 -19 10
-9 14 -8 18 8 3 12 -2 23 -14 29 -13 7 -19 7 -19 0z"/>
<path d="M2157 2911 c-4 -17 -3 -21 5 -13 5 5 8 16 6 23 -3 8 -7 3 -11 -10z"/>
<path d="M3515 2920 c3 -5 8 -10 11 -10 2 0 4 5 4 10 0 6 -5 10 -11 10 -5 0
-7 -4 -4 -10z"/>
<path d="M2530 2904 c0 -9 7 -14 17 -12 25 5 28 28 4 28 -12 0 -21 -6 -21 -16z"/>
<path d="M2736 2884 c-10 -26 1 -28 25 -5 22 21 22 21 2 21 -11 0 -24 -7 -27
-16z"/>
<path d="M3465 2879 c-4 -6 -5 -12 -2 -15 2 -3 7 2 10 11 7 17 1 20 -8 4z"/>
<path d="M2059 2869 c-8 -5 -8 -8 0 -13 6 -4 11 -3 11 2 0 5 14 7 30 4 17 -2
30 -2 30 1 0 8 -59 14 -71 6z"/>
<path d="M2306 2856 c3 -14 1 -27 -6 -31 -9 -6 -9 -10 1 -16 24 -15 29 -10 22
22 -5 26 -3 30 12 27 10 -2 20 3 22 10 3 8 -6 12 -26 12 -28 0 -31 -3 -25 -24z"/>
<path d="M2500 2869 c0 -5 5 -7 10 -4 6 3 10 8 10 11 0 2 -4 4 -10 4 -5 0 -10
-5 -10 -11z"/>
<path d="M1790 2836 c0 -18 -3 -48 -6 -65 -6 -27 -4 -31 15 -31 11 0 21 3 22
8 0 4 2 33 3 65 3 50 1 57 -15 57 -15 0 -19 -8 -19 -34z"/>
<path d="M2802 2852 c2 -11 -3 -26 -10 -35 -8 -9 -10 -21 -6 -28 5 -8 9 -7 16
5 5 9 16 16 23 16 8 0 15 7 15 15 0 8 -4 15 -10 15 -5 0 -10 7 -10 15 0 8 -5
15 -11 15 -5 0 -9 -8 -7 -18z"/>
<path d="M1755 2851 c-3 -5 -2 -12 3 -15 5 -3 9 1 9 9 0 17 -3 19 -12 6z"/>
<path d="M2015 2850 c3 -5 14 -10 23 -10 15 0 15 2 2 10 -20 13 -33 13 -25 0z"/>
<path d="M2912 2848 c5 -15 48 -24 48 -10 0 10 -23 22 -42 22 -5 0 -8 -6 -6
-12z"/>
<path d="M2726 2835 c10 -8 15 -15 9 -14 -27 4 -27 -3 -1 -16 36 -19 35 -19
28 8 -6 24 -20 37 -41 37 -11 0 -9 -4 5 -15z"/>
<path d="M2877 2839 c7 -7 15 -10 18 -7 3 3 -2 9 -12 12 -14 6 -15 5 -6 -5z"/>
<path d="M2391 2836 c2 -2 14 -8 25 -14 18 -9 25 -8 35 6 12 15 12 15 -1 5
-10 -8 -21 -9 -30 -3 -14 9 -38 14 -29 6z"/>
<path d="M2586 2815 c-9 -26 -7 -32 5 -12 6 10 9 21 6 23 -2 3 -7 -2 -11 -11z"/>
<path d="M2352 2808 c-14 -18 -10 -68 6 -68 6 0 12 -4 12 -8 0 -5 16 -14 36
-20 29 -9 45 -8 78 4 22 9 46 16 53 16 15 2 4 28 -12 28 -7 0 -18 -7 -25 -15
-15 -18 -79 -20 -115 -3 -23 10 -36 48 -16 48 5 0 11 7 15 15 7 18 -17 20 -32
3z"/>
<path d="M2411 2784 c0 -11 3 -14 6 -6 3 7 2 16 -1 19 -3 4 -6 -2 -5 -13z"/>
<path d="M2321 2754 c0 -11 3 -14 6 -6 3 7 2 16 -1 19 -3 4 -6 -2 -5 -13z"/>
<path d="M1747 2737 c-3 -8 1 -14 8 -14 7 0 11 6 8 14 -3 7 -6 13 -8 13 -2 0
-5 -6 -8 -13z"/>
<path d="M3055 2730 c-3 -6 1 -7 9 -4 18 7 21 14 7 14 -6 0 -13 -4 -16 -10z"/>
<path d="M1787 2723 c-4 -3 -7 -11 -7 -17 0 -6 5 -5 12 2 6 6 9 14 7 17 -3 3
-9 2 -12 -2z"/>
<path d="M1840 2720 c-8 -5 -10 -10 -5 -10 6 0 17 5 25 10 8 5 11 10 5 10 -5
0 -17 -5 -25 -10z"/>
<path d="M3068 2690 c-16 -17 -28 -42 -28 -55 0 -29 -7 -30 -34 -10 -25 19
-67 19 -111 1 -37 -16 -47 -38 -49 -107 -1 -46 -9 -48 -67 -14 -61 35 -112 33
-150 -4 -16 -16 -29 -36 -29 -45 0 -8 -9 -20 -19 -26 -17 -8 -20 -6 -26 19
-10 46 -59 86 -105 85 -42 -1 -104 -35 -121 -65 -25 -47 29 -91 62 -50 9 11
29 25 43 31 24 9 28 7 36 -16 6 -14 10 -30 10 -35 0 -21 54 -59 83 -59 41 0
92 34 111 75 l17 35 60 -31 c77 -39 134 -42 160 -10 17 20 26 74 20 119 -3 21
25 24 58 8 40 -21 94 -20 114 2 8 9 19 35 22 57 4 22 14 48 22 57 8 9 13 27
11 40 -5 37 -56 36 -90 -2z m47 1 c-3 -5 -1 -12 5 -16 7 -4 5 -14 -5 -28 -8
-12 -15 -32 -15 -44 0 -13 -6 -23 -12 -23 -9 0 -8 -4 2 -10 12 -8 10 -10 -8
-10 -13 0 -21 -4 -18 -9 5 -7 -12 -8 -47 -2 -5 0 -5 6 -1 13 5 7 2 9 -8 6 -8
-4 -23 2 -32 14 -10 11 -20 17 -24 13 -3 -3 0 -10 8 -15 12 -8 11 -10 -6 -10
-31 0 -45 -22 -48 -73 -4 -62 -36 -100 -62 -74 -4 4 -23 7 -41 7 -23 0 -32 4
-27 12 4 7 3 8 -4 4 -6 -4 -21 3 -32 14 -17 17 -24 19 -36 9 -8 -6 -17 -9 -20
-6 -8 8 -34 -18 -34 -33 0 -7 -7 -10 -17 -6 -15 5 -15 4 1 -9 11 -8 15 -15 9
-15 -5 0 -20 -9 -33 -20 -18 -16 -36 -19 -68 -11 -1 1 2 10 8 21 6 11 16 17
25 14 9 -4 22 7 36 30 23 39 32 46 23 19 -5 -14 -4 -15 4 -4 6 8 8 20 5 27 -5
14 50 29 68 18 8 -4 9 -3 5 4 -10 17 26 3 41 -16 7 -8 32 -17 57 -19 l45 -5
10 39 c6 21 9 48 7 60 -6 28 20 49 69 56 29 5 36 4 25 -4 -12 -8 -12 -10 5 -8
11 1 28 -1 38 -6 25 -11 43 -1 60 34 9 17 11 29 6 26 -20 -13 -8 13 14 28 26
19 30 20 22 8z m-617 -193 c6 -6 12 -17 12 -25 0 -8 4 -12 9 -9 12 8 22 -20
14 -41 -4 -11 -3 -14 5 -9 17 10 14 -5 -5 -29 -13 -16 -15 -17 -10 -2 4 9 2
17 -2 17 -10 0 -56 71 -53 82 4 14 -33 3 -64 -19 -17 -13 -34 -20 -38 -16 -3
3 -6 1 -6 -6 0 -7 -4 -9 -10 -6 -6 4 -5 11 3 19 6 8 16 11 21 9 5 -3 6 0 4 8
-7 22 42 49 77 42 17 -3 36 -10 43 -15z"/>
<path d="M2428 2503 c7 -3 16 -2 19 1 4 3 -2 6 -13 5 -11 0 -14 -3 -6 -6z"/>
<path d="M2500 2439 c0 -15 18 -19 23 -6 3 8 -1 14 -9 14 -8 0 -14 -4 -14 -8z"/>
<path d="M2187 2651 c-3 -12 -1 -19 3 -16 5 3 15 -6 23 -21 12 -22 15 -24 20
-10 4 9 3 15 -2 12 -5 -3 -15 8 -23 25 -14 28 -16 29 -21 10z"/>
<path d="M3343 2643 c9 -2 23 -2 30 0 6 3 -1 5 -18 5 -16 0 -22 -2 -12 -5z"/>
<path d="M3328 2623 c6 -2 18 -2 25 0 6 3 1 5 -13 5 -14 0 -19 -2 -12 -5z"/>
<path d="M3458 2623 c7 -3 16 -2 19 1 4 3 -2 6 -13 5 -11 0 -14 -3 -6 -6z"/>
<path d="M3581 2604 c0 -11 3 -14 6 -6 3 7 2 16 -1 19 -3 4 -6 -2 -5 -13z"/>
<path d="M3845 2609 c-4 -6 -4 -13 -1 -16 3 -4 6 -1 6 5 0 7 5 12 11 12 6 0 8
-9 4 -22 -5 -20 -4 -21 5 -5 11 17 6 37 -10 37 -5 0 -12 -5 -15 -11z"/>
<path d="M3603 2574 c0 -7 6 -10 14 -7 7 3 13 8 13 12 0 4 -6 8 -13 8 -8 0
-14 -6 -14 -13z"/>
<path d="M3566 2572 c-3 -5 1 -9 9 -9 8 0 12 4 9 9 -3 4 -7 8 -9 8 -2 0 -6 -4
-9 -8z"/>
<path d="M3825 2571 c-3 -5 0 -13 6 -17 7 -4 9 -3 5 4 -3 5 0 13 6 15 9 4 10
6 1 6 -6 1 -14 -3 -18 -8z"/>
<path d="M2319 2553 c-13 -16 -12 -17 4 -4 9 7 17 15 17 17 0 8 -8 3 -21 -13z"/>
<path d="M2740 2567 c0 -3 15 -10 32 -16 18 -6 28 -7 23 -2 -12 10 -55 25 -55
18z"/>
<path d="M3600 2540 c-9 -6 -10 -10 -3 -10 6 0 15 5 18 10 8 12 4 12 -15 0z"/>
<path d="M3675 2541 c-3 -5 0 -13 6 -17 7 -4 9 -3 5 4 -3 5 0 13 6 15 9 4 10
6 1 6 -6 1 -14 -3 -18 -8z"/>
<path d="M3397 2525 c-4 -8 -14 -15 -22 -15 -9 0 -13 -5 -9 -11 4 -7 13 -4 27
10 12 11 18 23 15 26 -3 3 -8 -1 -11 -10z"/>
<path d="M3778 2533 c7 -3 16 -2 19 1 4 3 -2 6 -13 5 -11 0 -14 -3 -6 -6z"/>
<path d="M3120 2525 c0 -5 5 -17 10 -25 5 -8 10 -10 10 -5 0 6 -5 17 -10 25
-5 8 -10 11 -10 5z"/>
<path d="M3820 2520 c-9 -6 -10 -10 -3 -10 6 0 15 5 18 10 8 12 4 12 -15 0z"/>
<path d="M3695 2510 c-16 -7 -17 -9 -3 -9 9 -1 20 4 23 9 7 11 7 11 -20 0z"/>
<path d="M3732 2503 c-13 -5 -7 -23 9 -23 6 0 7 5 3 11 -4 8 1 9 16 4 15 -5
20 -4 16 4 -7 11 -22 13 -44 4z"/>
<path d="M3498 2463 c7 -3 16 -2 19 1 4 3 -2 6 -13 5 -11 0 -14 -3 -6 -6z"/>
<path d="M2181 2444 c0 -11 3 -14 6 -6 3 7 2 16 -1 19 -3 4 -6 -2 -5 -13z"/>
<path d="M3570 2425 c-7 -8 -18 -14 -24 -13 -19 5 -76 -49 -76 -71 0 -33 22
-24 65 29 22 26 42 47 46 45 3 -2 6 2 6 10 0 19 -2 19 -17 0z"/>
<path d="M2410 2405 c-7 -9 -8 -15 -2 -15 5 0 12 7 16 15 3 8 4 15 2 15 -2 0
-9 -7 -16 -15z"/>
<path d="M2441 2394 c0 -11 3 -14 6 -6 3 7 2 16 -1 19 -3 4 -6 -2 -5 -13z"/>
<path d="M3590 2380 c-7 -16 -16 -27 -21 -24 -5 3 -9 0 -9 -6 0 -18 24 -6 36
18 6 12 14 19 18 15 4 -4 4 0 0 10 -8 23 -10 22 -24 -13z"/>
<path d="M3225 2390 c-3 -5 1 -10 9 -10 9 0 16 5 16 10 0 6 -4 10 -9 10 -6 0
-13 -4 -16 -10z"/>
<path d="M3146 2364 c-3 -8 -10 -12 -16 -9 -5 3 -10 3 -10 -2 0 -4 -20 -19
-45 -32 -25 -13 -45 -28 -45 -33 0 -8 97 38 110 53 3 3 16 13 30 22 23 16 23
17 3 17 -11 0 -24 -7 -27 -16z"/>
<path d="M3265 2370 c3 -5 8 -10 11 -10 2 0 4 5 4 10 0 6 -5 10 -11 10 -5 0
-7 -4 -4 -10z"/>
<path d="M2879 2353 c-13 -17 -13 -17 6 -3 11 8 22 16 24 17 2 2 0 3 -6 3 -6
0 -17 -8 -24 -17z"/>
<path d="M3540 2341 c0 -6 4 -13 10 -16 6 -3 7 1 4 9 -7 18 -14 21 -14 7z"/>
<path d="M2396 2328 c3 -5 10 -6 15 -3 13 9 11 12 -6 12 -8 0 -12 -4 -9 -9z"/>
<path d="M2251 2314 c0 -11 3 -14 6 -6 3 7 2 16 -1 19 -3 4 -6 -2 -5 -13z"/>
<path d="M2106 2293 c-6 -14 -5 -15 5 -6 7 7 10 15 7 18 -3 3 -9 -2 -12 -12z"/>
<path d="M2998 2276 c-8 -7 -24 -17 -37 -21 -12 -4 -20 -9 -18 -12 8 -7 77 28
77 38 0 13 -6 11 -22 -5z"/>
<path d="M3500 2279 c0 -5 5 -7 10 -4 6 3 10 8 10 11 0 2 -4 4 -10 4 -5 0 -10
-5 -10 -11z"/>
<path d="M2116 2263 c-6 -14 -5 -15 5 -6 7 7 10 15 7 18 -3 3 -9 -2 -12 -12z"/>
<path d="M1612 2254 c10 -10 20 -16 22 -13 3 3 -5 11 -17 18 -21 13 -21 12 -5
-5z"/>
<path d="M2885 2225 c-16 -8 -40 -14 -52 -15 -13 0 -23 -5 -23 -11 0 -6 9 -8
21 -4 12 4 31 8 42 10 31 4 57 16 57 26 0 12 -8 10 -45 -6z"/>
<path d="M2531 2184 c0 -11 3 -14 6 -6 3 7 2 16 -1 19 -3 4 -6 -2 -5 -13z"/>
<path d="M2770 2190 c0 -5 7 -10 15 -10 8 0 15 5 15 10 0 6 -7 10 -15 10 -8 0
-15 -4 -15 -10z"/>
<path d="M2050 2168 c0 -11 12 -10 30 2 12 7 10 9 -8 7 -12 0 -22 -5 -22 -9z"/>
<path d="M2745 2169 c-4 -6 -5 -12 -2 -15 2 -3 7 2 10 11 7 17 1 20 -8 4z"/>
<path d="M2733 2110 c2 -13 9 -26 16 -28 10 -3 10 0 1 19 -18 34 -21 36 -17 9z"/>
<path d="M2722 2008 c7 -15 15 -23 17 -17 2 6 -4 18 -13 27 -15 15 -15 15 -4
-10z"/>
<path d="M2602 1985 c0 -16 2 -22 5 -12 2 9 2 23 0 30 -3 6 -5 -1 -5 -18z"/>
<path d="M2610 1893 c0 -26 16 -48 24 -34 4 6 29 11 57 11 42 0 49 3 49 20 0
18 -7 20 -65 20 -55 0 -65 -3 -65 -17z"/>
<path d="M2755 1860 c-3 -5 0 -10 7 -11 7 0 4 -4 -7 -9 -13 -6 -15 -9 -5 -9 8
0 21 3 28 8 10 6 10 10 -2 20 -10 8 -16 9 -21 1z"/>
<path d="M1283 2497 c0 -9 9 -12 26 -9 23 5 24 6 6 13 -29 11 -32 11 -32 -4z"/>
<path d="M1351 2491 c-10 -7 -7 -9 12 -8 14 1 23 5 20 10 -6 9 -15 9 -32 -2z"/>
<path d="M1517 2473 c-13 -12 -7 -35 7 -30 9 4 17 -1 19 -11 3 -9 4 -2 3 15
-1 31 -14 42 -29 26z"/>
<path d="M1340 2432 c-17 -22 -29 -30 -42 -26 -14 4 -16 1 -11 -12 4 -11 3
-15 -4 -11 -6 4 -14 0 -17 -9 -3 -9 -13 -14 -20 -11 -14 6 -32 -21 -21 -31 3
-3 5 0 5 6 0 7 8 12 18 12 19 0 47 -53 37 -70 -10 -15 -35 -12 -35 5 0 8 -7
15 -15 15 -27 0 -14 -30 21 -48 23 -12 44 0 44 26 0 9 6 12 15 8 9 -3 24 4 37
19 12 14 29 23 37 20 9 -2 23 0 31 6 13 9 12 10 -3 5 -11 -3 -16 -2 -12 4 3 5
1 18 -5 27 -10 16 -11 15 -7 -4 7 -32 -15 -29 -40 5 -18 24 -19 30 -7 47 13
18 15 18 44 -10 16 -16 30 -36 30 -44 1 -13 3 -12 12 3 8 15 7 22 -9 35 -11 9
-23 24 -26 34 -4 10 -11 16 -16 13 -5 -4 -11 -1 -13 6 -3 7 -15 -2 -28 -20z
m-9 -69 c15 -27 15 -63 0 -63 -4 0 -18 12 -32 26 -16 18 -20 28 -11 31 6 3 12
11 12 19 0 22 14 16 31 -13z"/>
<path d="M1256 2405 c-9 -26 -7 -32 5 -12 6 10 9 21 6 23 -2 3 -7 -2 -11 -11z"/>
<path d="M1465 2240 c-3 -5 -1 -10 4 -10 6 0 11 5 11 10 0 6 -2 10 -4 10 -3 0
-8 -4 -11 -10z"/>
<path d="M2508 3433 c7 -3 16 -2 19 1 4 3 -2 6 -13 5 -11 0 -14 -3 -6 -6z"/>
<path d="M4421 3414 c0 -11 3 -14 6 -6 3 7 2 16 -1 19 -3 4 -6 -2 -5 -13z"/>
<path d="M4205 2818 c11 -6 30 -23 42 -37 12 -14 22 -21 23 -14 0 14 -57 63
-73 63 -7 0 -3 -6 8 -12z"/>
<path d="M4280 2743 c0 -7 4 -13 8 -13 5 0 24 -22 43 -50 32 -47 61 -71 40
-32 -18 32 -90 107 -91 95z"/>
<path d="M1416 2671 c-9 -10 -13 -21 -9 -24 13 -13 23 -7 24 16 0 12 3 16 6
10 5 -15 23 -17 23 -4 0 18 -29 19 -44 2z"/>
<path d="M3750 2630 c-9 -6 -10 -10 -3 -10 6 0 15 5 18 10 8 12 4 12 -15 0z"/>
<path d="M4380 2613 c0 -10 38 -53 47 -53 3 0 -1 8 -8 17 -25 32 -39 45 -39
36z"/>
<path d="M4540 2600 c-13 -8 -12 -10 3 -10 9 0 17 5 17 10 0 12 -1 12 -20 0z"/>
<path d="M4586 2577 c3 -10 9 -15 12 -12 3 3 0 11 -7 18 -10 9 -11 8 -5 -6z"/>
<path d="M4437 2530 c3 -11 9 -20 15 -20 5 0 4 9 -2 20 -6 11 -12 20 -14 20
-2 0 -2 -9 1 -20z"/>
<path d="M4628 2529 c-10 -10 -18 -21 -18 -24 0 -3 -9 -14 -21 -26 -11 -11
-18 -23 -15 -27 4 -3 13 3 20 14 8 10 23 30 35 43 12 13 21 28 21 33 0 11 -2
10 -22 -13z"/>
<path d="M4476 2460 c33 -56 34 -57 34 -39 0 8 -14 30 -30 49 l-31 35 27 -45z"/>
<path d="M4701 2493 c0 -6 -4 -20 -7 -30 -5 -14 -4 -15 5 -7 7 7 11 20 8 30
-3 11 -5 14 -6 7z"/>
<path d="M4750 2460 c0 -5 5 -10 11 -10 5 0 7 5 4 10 -3 6 -8 10 -11 10 -2 0
-4 -4 -4 -10z"/>
<path d="M4794 2447 c-3 -9 1 -26 10 -38 15 -22 15 -22 11 10 -5 40 -12 50
-21 28z"/>
<path d="M4706 2424 c-3 -8 -1 -14 4 -14 6 0 10 -4 10 -10 0 -5 -9 -10 -19
-10 -20 0 -37 -32 -26 -50 3 -5 1 -10 -4 -10 -10 0 -15 14 -12 33 2 11 -17 8
-25 -5 -8 -12 24 -40 41 -35 5 2 9 15 7 28 -2 19 -1 21 7 9 10 -13 11 -13 11
0 0 8 9 21 20 28 11 7 20 18 20 26 0 19 -27 28 -34 10z"/>
<path d="M1171 2394 c0 -11 3 -14 6 -6 3 7 2 16 -1 19 -3 4 -6 -2 -5 -13z"/>
<path d="M4731 2350 c-9 -14 -24 -34 -33 -44 -10 -11 -20 -28 -24 -38 -3 -10
-9 -18 -14 -18 -5 0 -7 -7 -3 -15 4 -11 14 -2 37 32 41 63 68 93 83 93 6 0 15
4 18 10 4 6 -5 9 -21 8 -16 -2 -33 -13 -43 -28z"/>
<path d="M4608 2325 c-4 -20 -2 -23 8 -14 7 6 10 17 7 25 -7 20 -10 18 -15
-11z"/>
<path d="M4655 2300 c-4 -6 -11 -8 -16 -5 -5 4 -9 1 -9 -4 0 -16 16 -13 30 4
7 8 10 15 7 15 -3 0 -9 -5 -12 -10z"/>
</g>
</svg>
